# Blender v3.2.2 OBJ File: 'umbrella.blend'
# www.blender.org
mtllib umbrella.mtl
o stick_Cube.004
v 0.006350 0.127000 0.002635
v 0.002635 0.127000 0.006350
v 0.002635 0.000000 0.006350
v 0.006350 0.000000 0.002635
v -0.002635 0.127000 0.006350
v -0.006350 0.127000 0.002635
v -0.006350 0.000000 0.002635
v -0.002635 0.000000 0.006350
v 0.002635 0.127000 -0.006350
v 0.006350 0.127000 -0.002635
v 0.006350 0.000000 -0.002635
v 0.002635 0.000000 -0.006350
v -0.006350 0.127000 -0.002635
v -0.002635 0.127000 -0.006350
v -0.002635 -0.000000 -0.006350
v -0.006350 0.000000 -0.002635
v 0.002635 -0.127000 0.006350
v 0.006350 -0.127000 0.002635
v -0.006350 -0.127000 0.002635
v -0.002635 -0.127000 0.006350
v 0.006350 -0.127000 -0.002635
v 0.002635 -0.127000 -0.006350
v -0.002635 -0.127000 -0.006350
v -0.006350 -0.127000 -0.002635
v 0.002635 -0.152400 0.006350
v 0.006350 -0.156210 0.002635
v -0.006350 -0.156210 0.002635
v -0.002635 -0.152400 0.006350
v 0.006350 -0.161290 -0.002635
v 0.002635 -0.165100 -0.006350
v -0.002635 -0.165100 -0.006350
v -0.006350 -0.161290 -0.002635
v 0.002642 -0.166006 0.025400
v 0.006350 -0.171596 0.025400
v -0.006350 -0.171596 0.025400
v -0.002642 -0.166006 0.025400
v 0.006350 -0.178704 0.025400
v 0.002642 -0.183998 0.025400
v -0.002642 -0.183998 0.025400
v -0.006350 -0.178704 0.025400
v 0.002635 -0.127000 0.044450
v 0.006350 -0.127000 0.048165
v -0.006350 -0.127000 0.048165
v -0.002635 -0.127000 0.044450
v 0.006350 -0.127000 0.053435
v 0.002635 -0.127000 0.057150
v -0.002635 -0.127000 0.057150
v -0.006350 -0.127000 0.053435
v 0.002635 -0.152400 0.044450
v 0.006350 -0.156210 0.048165
v -0.006350 -0.156210 0.048165
v -0.002635 -0.152400 0.044450
v 0.006350 -0.161290 0.053435
v 0.002635 -0.165100 0.057150
v -0.002635 -0.165100 0.057150
v -0.006350 -0.161290 0.053435
vt 0.000000 0.000000
vt 0.000000 0.000000
vt 0.000000 0.000000
vt 0.000000 0.000000
vt 0.000000 0.000000
vt 0.000000 0.000000
vt 0.000000 0.000000
vt 0.000000 0.000000
vt 0.000000 0.000000
vt 0.000000 0.000000
vt 0.000000 0.000000
vt 0.000000 0.000000
vt 0.000000 0.000000
vt 0.000000 0.000000
vt 0.000000 0.000000
vt 0.000000 0.000000
vt 0.000000 0.000000
vt 0.000000 0.000000
vt 0.000000 0.000000
vt 0.000000 0.000000
vt 0.000000 0.000000
vt 0.000000 0.000000
vt 0.000000 0.000000
vt 0.000000 0.000000
vt 0.000000 0.000000
vt 0.000000 0.000000
vt 0.000000 0.000000
vt 0.000000 0.000000
vt 0.000000 0.000000
vt 0.000000 0.000000
vt 0.000000 0.000000
vt 0.000000 0.000000
vt 0.000000 0.000000
vt 0.000000 0.000000
vt 0.000000 0.000000
vt 0.000000 0.000000
vt 0.000000 0.000000
vt 0.000000 0.000000
vt 0.000000 0.000000
vt 0.000000 0.000000
vt 0.000000 0.000000
vt 0.000000 0.000000
vt 0.000000 0.000000
vt 0.000000 0.000000
vt 0.000000 0.000000
vt 0.000000 0.000000
vt 0.000000 0.000000
vt 0.000000 0.000000
vt 0.000000 0.000000
vt 0.000000 0.000000
vt 0.000000 0.000000
vt 0.000000 0.000000
vt 0.000000 0.000000
vt 0.000000 0.000000
vt 0.000000 0.000000
vt 0.000000 0.000000
vn -1.0000 0.0000 0.0000
vn 0.0000 0.0000 -1.0000
vn -0.7071 0.0000 -0.7071
vn 0.7071 -0.0000 -0.7071
vn 1.0000 -0.0000 0.0000
vn -0.7071 0.0000 0.7071
vn 0.7071 0.0000 0.7071
vn 0.0000 0.0000 1.0000
vn 0.0000 0.8593 0.5115
vn 0.0000 -0.8138 -0.5812
vn -0.7984 -0.4949 -0.3430
vn 0.7944 0.5191 0.3154
vn -0.7944 0.5191 0.3154
vn 0.7984 -0.4949 -0.3430
vn 0.0000 0.8593 -0.5115
vn 0.0000 -0.8138 0.5812
vn -0.7984 -0.4949 0.3430
vn 0.7944 0.5191 -0.3154
vn -0.7944 0.5191 -0.3154
vn 0.7984 -0.4949 0.3430
vn 0.0000 -1.0000 -0.0000
usemtl Material.001
s off
f 1/1/1 10/2/1 11/3/1 4/4/1
f 2/5/2 3/6/2 8/7/2 5/8/2
f 3/6/3 2/5/3 1/1/3 4/4/3
f 7/9/4 6/10/4 5/8/4 8/7/4
f 6/10/5 7/9/5 16/11/5 13/12/5
f 11/3/6 10/2/6 9/13/6 12/14/6
f 16/11/5 7/9/5 19/15/5 24/16/5
f 15/17/7 14/18/7 13/12/7 16/11/7
f 12/14/8 9/13/8 14/18/8 15/17/8
f 18/19/1 21/20/1 29/21/1 26/22/1
f 11/3/6 12/14/6 22/23/6 21/20/6
f 4/4/1 11/3/1 21/20/1 18/19/1
f 7/9/4 8/7/4 20/24/4 19/15/4
f 3/6/3 4/4/3 18/19/3 17/25/3
f 12/14/8 15/17/8 23/26/8 22/23/8
f 8/7/2 3/6/2 17/25/2 20/24/2
f 15/17/7 16/11/7 24/16/7 23/26/7
f 30/27/9 31/28/9 39/29/9 38/30/9
f 20/24/2 17/25/2 25/31/2 28/32/2
f 17/25/3 18/19/3 26/22/3 25/31/3
f 24/16/5 19/15/5 27/33/5 32/34/5
f 23/26/7 24/16/7 32/34/7 31/28/7
f 21/20/6 22/23/6 30/27/6 29/21/6
f 19/15/4 20/24/4 28/32/4 27/33/4
f 22/23/8 23/26/8 31/28/8 30/27/8
f 26/22/1 29/21/1 37/35/1 34/36/1
f 28/32/10 25/31/10 33/37/10 36/38/10
f 25/31/11 26/22/11 34/36/11 33/37/11
f 32/34/5 27/33/5 35/39/5 40/40/5
f 31/28/12 32/34/12 40/40/12 39/29/12
f 29/21/13 30/27/13 38/30/13 37/35/13
f 27/33/14 28/32/14 36/38/14 35/39/14
f 42/41/1 50/42/1 53/43/1 45/44/1
f 54/45/15 38/30/15 39/29/15 55/46/15
f 44/47/8 52/48/8 49/49/8 41/50/8
f 41/50/6 49/49/6 50/42/6 42/41/6
f 48/51/5 56/52/5 51/53/5 43/54/5
f 47/55/4 55/46/4 56/52/4 48/51/4
f 45/44/3 53/43/3 54/45/3 46/56/3
f 43/54/7 51/53/7 52/48/7 44/47/7
f 46/56/2 54/45/2 55/46/2 47/55/2
f 50/42/1 34/36/1 37/35/1 53/43/1
f 52/48/16 36/38/16 33/37/16 49/49/16
f 49/49/17 33/37/17 34/36/17 50/42/17
f 56/52/5 40/40/5 35/39/5 51/53/5
f 55/46/18 39/29/18 40/40/18 56/52/18
f 53/43/19 37/35/19 38/30/19 54/45/19
f 51/53/20 35/39/20 36/38/20 52/48/20
f 42/41/21 45/44/21 46/56/21 47/55/21 48/51/21 43/54/21 44/47/21 41/50/21
o panels_Cube.005
v -0.006325 0.126949 -0.002642
v -0.002642 0.126949 -0.006325
v 0.177800 0.074930 0.073762
v 0.073762 0.074930 0.177800
v -0.073762 0.074930 0.177800
v -0.177800 0.074930 0.073762
v 0.073762 0.074930 -0.177800
v 0.177800 0.074930 -0.073762
v -0.177800 0.074930 -0.073762
v -0.073762 0.074930 -0.177800
v 0.006325 0.126949 0.002642
v 0.002642 0.126949 0.006325
v -0.002642 0.126949 0.006325
v -0.006325 0.126949 0.002642
v 0.002642 0.126949 -0.006325
v 0.006325 0.126949 -0.002642
vt 0.000000 0.000000
vt 0.000000 0.000000
vt 0.000000 0.000000
vt 0.000000 0.000000
vt 0.000000 0.000000
vt 0.000000 0.000000
vt 0.000000 0.000000
vt 0.000000 0.000000
vt 0.000000 0.000000
vt 0.000000 0.000000
vt 0.000000 0.000000
vt 0.000000 0.000000
vt 0.000000 0.000000
vt 0.000000 0.000000
vt 0.000000 0.000000
vt 0.000000 0.000000
vn -0.2903 0.9569 0.0000
vn -0.2052 0.9570 -0.2052
vn 0.0000 0.9569 -0.2903
vn 0.2052 0.9570 -0.2052
vn 0.2903 0.9569 0.0000
vn 0.2052 0.9570 0.2052
vn 0.0000 0.9569 0.2903
vn -0.2052 0.9570 0.2052
usemtl Material.001
s off
f 65/57/22 62/58/22 70/59/22 57/60/22
f 58/61/23 66/62/23 65/57/23 57/60/23
f 63/63/24 66/62/24 58/61/24 71/64/24
f 64/65/25 63/63/25 71/64/25 72/66/25
f 59/67/26 64/65/26 72/66/26 67/68/26
f 60/69/27 59/67/27 67/68/27 68/70/27
f 61/71/28 60/69/28 68/70/28 69/72/28
f 62/58/29 61/71/29 69/72/29 70/59/29
